<?xml version="1.0" encoding="utf-8"?>
<!-- Generator: Adobe Illustrator 25.0.0, SVG Export Plug-In . SVG Version: 6.00 Build 0)  -->
<svg version="1.1" id="레이어_1" xmlns="http://www.w3.org/2000/svg" xmlns:xlink="http://www.w3.org/1999/xlink" x="0px"
	 y="0px" viewBox="0 0 120 99" style="enable-background:new 0 0 120 99;" xml:space="preserve">
<style type="text/css">
	.st0{stroke:#000000;stroke-width:0.5198;stroke-miterlimit:10;}
	.st1{fill:none;stroke:#000000;stroke-miterlimit:10;}
	.st2{fill:none;stroke:#000000;stroke-width:1.5;stroke-miterlimit:10;}
	.st3{fill:none;stroke:#000000;stroke-width:1.5595;stroke-miterlimit:10;}
	.st4{stroke:#000000;stroke-width:1.5;stroke-miterlimit:10;}
</style>
<g>
	<path class="st0" d="M39.9,31h4c2.6,0,4,1,4,3.1v0.4c0,0.3,0,0.5-0.1,0.8c-0.1,0.3-0.2,0.5-0.3,0.7c-0.2,0.2-0.4,0.4-0.6,0.6
		c-0.3,0.2-0.6,0.3-0.9,0.4c0.8,0.1,1.4,0.4,1.9,0.9c0.5,0.5,0.7,1.1,0.7,2v0.4c0,1-0.3,1.8-1,2.4c-0.7,0.6-1.7,0.9-3,0.9h-4.5V31z
		 M41.1,32.1v4.4h2.8c0.9,0,1.5-0.2,2-0.5c0.5-0.3,0.7-0.8,0.7-1.6v-0.3c0-0.7-0.2-1.3-0.7-1.6c-0.5-0.3-1.2-0.5-2.2-0.5H41.1z
		 M41.1,42.5h3.2c1,0,1.7-0.2,2.2-0.6c0.5-0.4,0.7-0.9,0.7-1.7v-0.4c0-0.4-0.1-0.7-0.2-1c-0.1-0.3-0.3-0.5-0.5-0.7
		c-0.3-0.2-0.6-0.3-1-0.4c-0.4-0.1-0.9-0.1-1.6-0.1h-2.8V42.5z"/>
	<path class="st0" d="M51.8,31v11.4H58v1.1h-7.5V31H51.8z"/>
	<path class="st0" d="M69.4,43.5h-1.3l-1.4-3.9h-5.3L60,43.5h-1.2L63.4,31h1.4L69.4,43.5z M61.8,38.6h4.5l-1.2-3.4
		C65,35,65,34.8,64.9,34.6c-0.1-0.2-0.1-0.4-0.2-0.7c-0.1-0.2-0.2-0.5-0.3-0.8c-0.1-0.3-0.2-0.6-0.3-1c-0.1,0.4-0.2,0.8-0.3,1
		c-0.1,0.3-0.2,0.6-0.3,0.8c-0.1,0.2-0.2,0.5-0.2,0.7c-0.1,0.2-0.1,0.4-0.2,0.6L61.8,38.6z"/>
	<path class="st0" d="M75.4,30.8c0.8,0,1.6,0.1,2.2,0.3c0.6,0.2,1.2,0.5,1.7,0.9l-0.6,1c-0.6-0.4-1.1-0.7-1.6-0.8
		c-0.5-0.2-1.1-0.2-1.7-0.2c-0.6,0-1.1,0.1-1.5,0.3c-0.4,0.2-0.8,0.5-1.1,0.9c-0.3,0.4-0.5,0.8-0.7,1.4c-0.2,0.5-0.2,1.1-0.2,1.8V38
		c0,1.5,0.3,2.7,1,3.5c0.7,0.8,1.6,1.1,2.7,1.1c0.8,0,1.5-0.1,2-0.4c0.5-0.2,1-0.6,1.4-0.9l0.7,1c-0.5,0.4-1,0.8-1.7,1.1
		c-0.7,0.3-1.5,0.4-2.5,0.4c-1.6,0-2.8-0.5-3.7-1.5c-0.8-1-1.2-2.4-1.2-4.2v-1.5c0-1.8,0.4-3.2,1.3-4.1
		C72.7,31.3,73.9,30.8,75.4,30.8z"/>
	<path class="st0" d="M85.5,36.4l5.5,7.2h-1.6l-4.8-6.3l-1.6,1.6v4.6h-1.2V31h1.2v6.3l6-6.3h1.6L85.5,36.4z"/>
	<path class="st0" d="M47.5,58.4h-6.4v5.9h-1.2V51.8h1.2v5.4h6.4v-5.4h1.2v12.5h-1.2V58.4z"/>
	<path class="st0" d="M59.2,51.8v1.1h-6.3v4.5h5.9v1.1h-5.9v4.8h6.4v1.1h-7.6V51.8H59.2z"/>
	<path class="st0" d="M71.4,64.3h-1.3l-1.4-3.9h-5.3L62,64.3h-1.2l4.6-12.5h1.4L71.4,64.3z M63.8,59.4h4.5L67.1,56
		c-0.1-0.2-0.2-0.4-0.2-0.6c-0.1-0.2-0.1-0.4-0.2-0.7c-0.1-0.2-0.2-0.5-0.3-0.8c-0.1-0.3-0.2-0.6-0.3-1c-0.1,0.4-0.2,0.8-0.3,1
		c-0.1,0.3-0.2,0.6-0.3,0.8c-0.1,0.2-0.2,0.5-0.2,0.7c-0.1,0.2-0.1,0.4-0.2,0.6L63.8,59.4z"/>
	<path class="st0" d="M78,58.9c-0.1,0-0.2,0-0.2,0c-0.1,0-0.2,0-0.2,0h-3.1v5.4h-1.2V51.8h4.3c0.6,0,1.2,0.1,1.7,0.3
		c0.5,0.2,0.9,0.4,1.2,0.7c0.3,0.3,0.6,0.7,0.8,1.1c0.2,0.4,0.3,0.9,0.3,1.4v0.3c0,0.8-0.2,1.4-0.6,2c-0.4,0.5-1,1-1.6,1.2l2.5,5.7
		h-1.3L78,58.9z M74.4,52.9v4.9h2.7c1.1,0,1.9-0.2,2.3-0.6c0.5-0.4,0.7-1,0.7-1.8v-0.2c0-0.7-0.2-1.3-0.7-1.7
		c-0.5-0.4-1.2-0.6-2.2-0.6H74.4z"/>
	<path class="st0" d="M92.3,51.8v1.1h-4v11.4h-1.2V52.9h-4v-1.1H92.3z"/>
</g>
<line class="st1" x1="98.5" y1="27.6" x2="98.5" y2="67.7"/>
<g>
	<path class="st0" d="M118.7,38.6v1.1h-14.6v-1.1H118.7z M112.1,30.8h5.2v1h-11.5v-1h5.2v-1.5h1.2V30.8z M106.1,41h10.6v4.6h-1.2V42
		h-9.4V41z M111.5,37.5c-0.7,0-1.4,0-2-0.1c-0.6-0.1-1.1-0.2-1.5-0.4c-0.4-0.2-0.7-0.4-1-0.7c-0.2-0.3-0.3-0.6-0.3-1v-0.4
		c0-0.4,0.1-0.7,0.3-1c0.2-0.3,0.5-0.5,1-0.7c0.4-0.2,0.9-0.3,1.5-0.4c0.6-0.1,1.2-0.1,2-0.1c0.7,0,1.4,0,2,0.1
		c0.6,0.1,1.1,0.2,1.5,0.4c0.4,0.2,0.7,0.4,1,0.7c0.2,0.3,0.3,0.6,0.3,1v0.4c0,0.4-0.1,0.7-0.3,1c-0.2,0.3-0.5,0.5-1,0.7
		c-0.4,0.2-0.9,0.3-1.5,0.4C112.8,37.5,112.2,37.5,111.5,37.5z M111.5,33.7c-0.5,0-1,0-1.4,0.1c-0.4,0.1-0.8,0.1-1.1,0.2
		c-0.3,0.1-0.6,0.2-0.7,0.4c-0.2,0.2-0.3,0.3-0.3,0.6v0.3c0,0.2,0.1,0.4,0.3,0.6c0.2,0.2,0.4,0.3,0.7,0.4c0.3,0.1,0.7,0.2,1.1,0.2
		c0.4,0.1,0.9,0.1,1.4,0.1c0.5,0,1,0,1.4-0.1c0.4-0.1,0.8-0.1,1.1-0.2c0.3-0.1,0.6-0.2,0.7-0.4c0.2-0.2,0.3-0.3,0.3-0.6v-0.3
		c0-0.2-0.1-0.4-0.3-0.6c-0.2-0.2-0.4-0.3-0.7-0.4c-0.3-0.1-0.7-0.2-1.1-0.2C112.5,33.7,112,33.7,111.5,33.7z"/>
	<path class="st0" d="M109.1,55.3c0,0.2-0.2,0.4-0.4,0.6c-0.2,0.3-0.6,0.6-0.9,0.9c-0.3,0.3-0.7,0.6-1.1,1c-0.5,0.4-0.9,0.8-1.5,1.2
		l-0.8-0.9c0.5-0.4,1-0.7,1.5-1.2c0.5-0.4,1-0.8,1.4-1.2c0.3-0.3,0.5-0.5,0.7-0.7c0.2-0.2,0.3-0.4,0.4-0.6c0.1-0.2,0.1-0.4,0.2-0.7
		c0-0.2,0-0.5,0-0.8v-1.9h1.2v1.8c0,0.3,0,0.6,0,0.8c0,0.2,0.1,0.4,0.2,0.6c0.1,0.2,0.2,0.4,0.4,0.6c0.2,0.2,0.4,0.4,0.7,0.7
		c0.4,0.4,0.9,0.7,1.3,1.1c0.4,0.4,0.9,0.7,1.3,1l-0.7,0.8c-0.5-0.4-0.9-0.7-1.3-1c-0.4-0.3-0.7-0.6-1-0.8
		C109.7,56,109.2,55.5,109.1,55.3L109.1,55.3z M107.5,60.2h9.7v6h-9.7V60.2z M108.7,65.1h7.3v-3.8h-7.3V65.1z M117.2,59.2H116v-8.8
		h1.2V59.2z"/>
</g>
<polygon class="st2" points="16.3,19.1 1.9,28.8 1.9,66.5 16.3,75.4 30.8,66.5 30.8,28.8 "/>
<line class="st3" x1="1.9" y1="47.2" x2="30.8" y2="47.2"/>
<polygon class="st2" points="16.3,19.1 1.9,28.8 1.9,66.5 16.3,75.4 30.8,66.5 30.8,28.8 "/>
<rect x="7.4" y="28.4" class="st2" width="9.9" height="38.5"/>
<line class="st4" x1="1.9" y1="47.2" x2="30.8" y2="47.2"/>
</svg>
